<svg viewBox="0 0 63.31 43.66" xmlns="http://www.w3.org/2000/svg"><g data-name="Capa 1"><path d="m63.31 39.92a3.75 3.75 0 0 1 -3.75 3.74h-55.82a3.75 3.75 0 0 1 -3.74-3.74v-36.18a3.75 3.75 0 0 1 3.74-3.74h55.82a3.75 3.75 0 0 1 3.75 3.74z" fill="#e7e7e2"/><path d="m2.66 39.92v-36.18a3.75 3.75 0 0 1 3.74-3.74h-2.66a3.75 3.75 0 0 0 -3.74 3.74v36.18a3.75 3.75 0 0 0 3.74 3.74h2.66a3.75 3.75 0 0 1 -3.74-3.74z" fill="#202020" opacity=".15" isolation="isolate"/><path d="m34 25.2 5.56-5.57a2.7 2.7 0 0 0 .72-1.74 2.46 2.46 0 0 0 -4.28-1.74l-1.3 1.36v-5.19a2.72 2.72 0 0 0 -.7-1.76 2.71 2.71 0 0 0 -1.75-.72 2.74 2.74 0 0 0 -1.75.72 2.72 2.72 0 0 0 -.72 1.76v5.19l-1.36-1.35a2.44 2.44 0 0 0 -3.48 0 2.72 2.72 0 0 0 -.71 1.74 2.72 2.72 0 0 0 .71 1.74l5.57 5.56a2.46 2.46 0 0 0 3.48 0z" fill="#3567aa"/><path d="m46.51 30.35h-27.81a2.88 2.88 0 0 1 -2.88-2.88v2a2.88 2.88 0 0 0 2.88 2.88h27.81a2.87 2.87 0 0 0 2.87-2.88v-2a2.88 2.88 0 0 1 -2.87 2.88z" fill="#34475c"/></g></svg>