<svg viewBox="0 0 63.31 43.66" xmlns="http://www.w3.org/2000/svg"><g data-name="Capa 1"><path d="m63.31 39.92a3.75 3.75 0 0 1 -3.75 3.74h-55.82a3.75 3.75 0 0 1 -3.74-3.74v-36.18a3.75 3.75 0 0 1 3.74-3.74h55.82a3.75 3.75 0 0 1 3.75 3.74z" fill="#e7e7e2"/><path d="m2.66 39.92v-36.18a3.75 3.75 0 0 1 3.74-3.74h-2.66a3.75 3.75 0 0 0 -3.74 3.74v36.18a3.75 3.75 0 0 0 3.74 3.74h2.66a3.75 3.75 0 0 1 -3.74-3.74z" fill="#202020" opacity=".15" isolation="isolate"/><g fill="#3e9c92"><ellipse cx="32.42" cy="22.34" rx="11.46" ry="14.51" transform="matrix(.99827074 -.05878369 .05878369 .99827074 -1.26 1.94)"/><circle cx="54.61" cy="21.04" r="1.78"/><circle cx="10.22" cy="23.65" r="1.78"/></g><path d="m32.49 34.05-.12-2.05a12.19 12.19 0 0 1 -7.11-2.66l1.91-2.57a9.84 9.84 0 0 0 5 2.17l-.33-5.46a11.54 11.54 0 0 1 -4.77-1.73 4.52 4.52 0 0 1 -1.69-3.58 5.15 5.15 0 0 1 1.46-4.09 6.91 6.91 0 0 1 4.34-2l-.09-1.4 1.8-.11.11 1.48a11.8 11.8 0 0 1 6 1.76l-1.68 2.7a9.17 9.17 0 0 0 -4.12-1.4l.31 5.29h.09a11.47 11.47 0 0 1 4.87 1.77 4.65 4.65 0 0 1 1.74 3.67 5.07 5.07 0 0 1 -1.53 4.16 7.22 7.22 0 0 1 -4.51 2l.12 2zm-3.06-18.05a2 2 0 0 0 -.62 1.62 2 2 0 0 0 .65 1.45 5.49 5.49 0 0 0 2.2.93l-.29-4.87a3.43 3.43 0 0 0 -1.94.87zm6.65 12a2.16 2.16 0 0 0 0-3.2 6.17 6.17 0 0 0 -2.38-.95l.3 5.05a3.89 3.89 0 0 0 2.08-.9z" fill="#e7e7e2"/></g></svg>