<svg viewBox="0 0 63.31 43.66" xmlns="http://www.w3.org/2000/svg"><g data-name="Capa 1"><path d="m63.31 39.92a3.75 3.75 0 0 1 -3.75 3.74h-55.82a3.75 3.75 0 0 1 -3.74-3.74v-36.18a3.75 3.75 0 0 1 3.74-3.74h55.82a3.75 3.75 0 0 1 3.75 3.74z" fill="#e7e7e2"/><path d="m2.66 39.92v-36.18a3.75 3.75 0 0 1 3.74-3.74h-2.66a3.75 3.75 0 0 0 -3.74 3.74v36.18a3.75 3.75 0 0 0 3.74 3.74h2.66a3.75 3.75 0 0 1 -3.74-3.74z" fill="#202020" opacity=".15" isolation="isolate"/><path d="m36.86 33.41.92-.06-.92-.14-1-.17a10.52 10.52 0 0 1 -1.3-.37 7.13 7.13 0 0 1 -1.45-.57 8.07 8.07 0 0 1 -1.49-.86l-.72-.51c-.24-.19-.45-.42-.67-.63a8.86 8.86 0 0 1 -1.23-1.38 14.08 14.08 0 0 1 -1-1.52c-.25-.57-.55-1.06-.73-1.61a12.54 12.54 0 0 1 -.52-1.59c-.16-.49-.24-1-.35-1.43 0-.28-.09-.54-.13-.79l.23.08a12.3 12.3 0 0 0 2.23.53q.59.07 1.2.12a9.4 9.4 0 0 0 1.29 0 9.5 9.5 0 0 0 -.58-1.15c-.21-.35-.44-.68-.67-1a13.27 13.27 0 0 0 -1.51-1.72 16.45 16.45 0 0 0 -3.53-2.64l-.16-.09a2.17 2.17 0 0 0 -2.51.29 16.87 16.87 0 0 0 -2.55 2.8 13.34 13.34 0 0 0 -1 1.73 9.65 9.65 0 0 0 -.78 2 10.72 10.72 0 0 0 2.14-.37 13.32 13.32 0 0 0 1.84-.65c.18.56.44 1.25.77 2 .24.5.46 1.05.78 1.6a16.26 16.26 0 0 0 1 1.7c.35.58.85 1.12 1.28 1.69a16.09 16.09 0 0 0 1.55 1.54 11.45 11.45 0 0 0 1.76 1.28 10.28 10.28 0 0 0 .91.53l.94.4a8.29 8.29 0 0 0 1.82.57 6.9 6.9 0 0 0 1.67.27 8.8 8.8 0 0 0 1.39.09z" fill="#228dca"/><path d="m41.48 30a16.43 16.43 0 0 0 2.63-2.76 13.56 13.56 0 0 0 1.08-1.69 10.09 10.09 0 0 0 .83-2 9.51 9.51 0 0 0 -2.14.31 11.9 11.9 0 0 0 -1.86.6c-.17-.58-.4-1.27-.71-2.06-.22-.5-.43-1.06-.73-1.62a17.82 17.82 0 0 0 -1-1.73c-.34-.59-.82-1.15-1.23-1.73a17.31 17.31 0 0 0 -1.51-1.58 10.41 10.41 0 0 0 -1.72-1.33 9.41 9.41 0 0 0 -.89-.56l-.93-.43a8.79 8.79 0 0 0 -1.8-.63 8.07 8.07 0 0 0 -1.66-.32 10.45 10.45 0 0 0 -1.39-.12h-1.07-.93l.91.17 1 .2a8.93 8.93 0 0 1 1.28.41 6.39 6.39 0 0 1 1.44.62 7 7 0 0 1 1.46.9l.71.54c.24.19.43.43.65.64a8.85 8.85 0 0 1 1.17 1.41 14.54 14.54 0 0 1 .94 1.55 17.12 17.12 0 0 1 .68 1.63 13.41 13.41 0 0 1 .54 1.58c.14.5.21 1 .3 1.45 0 .28.08.54.11.79l-.22-.09a12.92 12.92 0 0 0 -2.22-.6q-.59-.09-1.2-.15a9.2 9.2 0 0 0 -1.29 0 11.49 11.49 0 0 0 .54 1.17c.21.35.42.7.64 1a14.17 14.17 0 0 0 1.46 1.77 16.89 16.89 0 0 0 3.45 2.71l.16.1a2.18 2.18 0 0 0 2.52-.15z" fill="#c23032"/></g></svg>